{
	"asset":{
		"generator":"Khronos glTF Blender I/O v4.0.44",
		"version":"2.0"
	},
	"extensionsUsed":[
		"KHR_lights_punctual"
	],
	"extensionsRequired":[
		"KHR_lights_punctual"
	],
	"extensions":{
		"KHR_lights_punctual":{
			"lights":[
				{
					"color":[
						1,
						1,
						1
					],
					"intensity":543.5141306588226,
					"type":"point",
					"name":"Point"
				},
				{
					"color":[
						1,
						1,
						1
					],
					"intensity":683,
					"type":"directional",
					"name":"Sun.001"
				}
			]
		}
	},
	"scene":0,
	"scenes":[
		{
			"name":"Scene",
			"nodes":[
				7
			]
		}
	],
	"nodes":[
		{
			"mesh":0,
			"name":"Cube.003",
			"scale":[
				0.8000000715255737,
				0.8000001311302185,
				0.8000000715255737
			],
			"translation":[
				0,
				-2.1000001430511475,
				0
			]
		},
		{
			"children":[
				0
			],
			"mesh":1,
			"name":"Cube",
			"rotation":[
				0.70710688829422,
				0,
				0,
				0.7071066498756409
			],
			"scale":[
				0.7999998927116394,
				0.8000000715255737,
				0.7999999523162842
			],
			"translation":[
				0,
				-2.09999942779541,
				0
			]
		},
		{
			"extensions":{
				"KHR_lights_punctual":{
					"light":0
				}
			},
			"name":"Point",
			"rotation":[
				-0.5896462798118591,
				-0.3902784585952759,
				-0.6929115056991577,
				0.14097443222999573
			],
			"scale":[
				1.2499996423721313,
				1.2499996423721313,
				1.2499998807907104
			],
			"translation":[
				0,
				-2.6249990463256836,
				0
			]
		},
		{
			"children":[
				1,
				2
			],
			"mesh":2,
			"name":"Cube.001",
			"scale":[
				0.800000011920929,
				0.7999999523162842,
				0.8000000715255737
			],
			"translation":[
				0,
				0,
				2.0999996662139893
			]
		},
		{
			"mesh":3,
			"name":"Plane",
			"rotation":[
				-0.31725889444351196,
				-0.7659308910369873,
				-0.2139938473701477,
				0.5166268348693848
			],
			"translation":[
				0,
				-2.099998950958252,
				2.099999189376831
			]
		},
		{
			"mesh":4,
			"name":"Plane.001",
			"rotation":[
				0.5166269540786743,
				-0.21399372816085815,
				0.7659309506416321,
				0.3172587752342224
			],
			"translation":[
				5.656853675842285,
				3.5568549633026123,
				2.0999996662139893
			]
		},
		{
			"extensions":{
				"KHR_lights_punctual":{
					"light":1
				}
			},
			"name":"Sun",
			"rotation":[
				-0.5896462798118591,
				-0.3902784287929535,
				-0.6929115056991577,
				0.14097446203231812
			],
			"translation":[
				0,
				-2.09999942779541,
				2.09999942779541
			]
		},
		{
			"children":[
				3,
				4,
				5,
				6
			],
			"mesh":5,
			"name":"Cube.002",
			"rotation":[
				0.31725889444351196,
				0.7659308910369873,
				0.2139938622713089,
				0.5166268348693848
			],
			"translation":[
				-1.3908236026763916,
				1.4849239587783813,
				2.163471221923828
			]
		}
	],
	"meshes":[
		{
			"name":"Cube.008",
			"primitives":[
				{
					"attributes":{
						"COLOR_0":0,
						"POSITION":1,
						"NORMAL":2,
						"TEXCOORD_0":3,
						"TANGENT":4
					},
					"indices":5
				}
			]
		},
		{
			"name":"Cube.007",
			"primitives":[
				{
					"attributes":{
						"COLOR_0":6,
						"POSITION":7,
						"NORMAL":8,
						"TEXCOORD_0":9,
						"TANGENT":10
					},
					"indices":5
				}
			]
		},
		{
			"name":"Cube.006",
			"primitives":[
				{
					"attributes":{
						"COLOR_0":11,
						"POSITION":12,
						"NORMAL":13,
						"TEXCOORD_0":14,
						"TANGENT":15
					},
					"indices":5
				}
			]
		},
		{
			"name":"Plane.002",
			"primitives":[
				{
					"attributes":{
						"COLOR_0":16,
						"POSITION":17,
						"NORMAL":18
					},
					"indices":19
				}
			]
		},
		{
			"name":"Plane.003",
			"primitives":[
				{
					"attributes":{
						"COLOR_0":20,
						"POSITION":21,
						"NORMAL":22
					},
					"indices":23
				}
			]
		},
		{
			"name":"Cube.005",
			"primitives":[
				{
					"attributes":{
						"COLOR_0":24,
						"POSITION":25,
						"NORMAL":26,
						"TEXCOORD_0":27,
						"TANGENT":28
					},
					"indices":5
				}
			]
		}
	],
	"accessors":[
		{
			"bufferView":0,
			"componentType":5123,
			"count":24,
			"normalized":true,
			"type":"VEC4"
		},
		{
			"bufferView":1,
			"componentType":5126,
			"count":24,
			"max":[
				1,
				1,
				1
			],
			"min":[
				-1,
				-1,
				-1
			],
			"type":"VEC3"
		},
		{
			"bufferView":2,
			"componentType":5126,
			"count":24,
			"type":"VEC3"
		},
		{
			"bufferView":3,
			"componentType":5126,
			"count":24,
			"type":"VEC2"
		},
		{
			"bufferView":4,
			"componentType":5126,
			"count":24,
			"type":"VEC4"
		},
		{
			"bufferView":5,
			"componentType":5123,
			"count":36,
			"type":"SCALAR"
		},
		{
			"bufferView":6,
			"componentType":5123,
			"count":24,
			"normalized":true,
			"type":"VEC4"
		},
		{
			"bufferView":7,
			"componentType":5126,
			"count":24,
			"max":[
				1,
				1,
				1
			],
			"min":[
				-1,
				-1,
				-1
			],
			"type":"VEC3"
		},
		{
			"bufferView":8,
			"componentType":5126,
			"count":24,
			"type":"VEC3"
		},
		{
			"bufferView":9,
			"componentType":5126,
			"count":24,
			"type":"VEC2"
		},
		{
			"bufferView":10,
			"componentType":5126,
			"count":24,
			"type":"VEC4"
		},
		{
			"bufferView":11,
			"componentType":5123,
			"count":24,
			"normalized":true,
			"type":"VEC4"
		},
		{
			"bufferView":12,
			"componentType":5126,
			"count":24,
			"max":[
				1,
				1,
				1
			],
			"min":[
				-1,
				-1,
				-1
			],
			"type":"VEC3"
		},
		{
			"bufferView":13,
			"componentType":5126,
			"count":24,
			"type":"VEC3"
		},
		{
			"bufferView":14,
			"componentType":5126,
			"count":24,
			"type":"VEC2"
		},
		{
			"bufferView":15,
			"componentType":5126,
			"count":24,
			"type":"VEC4"
		},
		{
			"bufferView":16,
			"componentType":5123,
			"count":240,
			"normalized":true,
			"type":"VEC4"
		},
		{
			"bufferView":17,
			"componentType":5126,
			"count":240,
			"max":[
				4,
				4,
				0.11764705926179886
			],
			"min":[
				-0.11764705926179886,
				-0.10000000894069672,
				-4
			],
			"type":"VEC3"
		},
		{
			"bufferView":18,
			"componentType":5126,
			"count":240,
			"type":"VEC3"
		},
		{
			"bufferView":19,
			"componentType":5123,
			"count":1428,
			"type":"SCALAR"
		},
		{
			"bufferView":20,
			"componentType":5123,
			"count":240,
			"normalized":true,
			"type":"VEC4"
		},
		{
			"bufferView":21,
			"componentType":5126,
			"count":240,
			"max":[
				4,
				4,
				4
			],
			"min":[
				-0.11764705926179886,
				-0.10000038146972656,
				-0.11764713376760483
			],
			"type":"VEC3"
		},
		{
			"bufferView":22,
			"componentType":5126,
			"count":240,
			"type":"VEC3"
		},
		{
			"bufferView":23,
			"componentType":5123,
			"count":1428,
			"type":"SCALAR"
		},
		{
			"bufferView":24,
			"componentType":5123,
			"count":24,
			"normalized":true,
			"type":"VEC4"
		},
		{
			"bufferView":25,
			"componentType":5126,
			"count":24,
			"max":[
				1,
				1,
				1
			],
			"min":[
				-1,
				-1,
				-1
			],
			"type":"VEC3"
		},
		{
			"bufferView":26,
			"componentType":5126,
			"count":24,
			"type":"VEC3"
		},
		{
			"bufferView":27,
			"componentType":5126,
			"count":24,
			"type":"VEC2"
		},
		{
			"bufferView":28,
			"componentType":5126,
			"count":24,
			"type":"VEC4"
		}
	],
	"bufferViews":[
		{
			"buffer":0,
			"byteLength":192,
			"byteOffset":0,
			"target":34962
		},
		{
			"buffer":0,
			"byteLength":288,
			"byteOffset":192,
			"target":34962
		},
		{
			"buffer":0,
			"byteLength":288,
			"byteOffset":480,
			"target":34962
		},
		{
			"buffer":0,
			"byteLength":192,
			"byteOffset":768,
			"target":34962
		},
		{
			"buffer":0,
			"byteLength":384,
			"byteOffset":960,
			"target":34962
		},
		{
			"buffer":0,
			"byteLength":72,
			"byteOffset":1344,
			"target":34963
		},
		{
			"buffer":0,
			"byteLength":192,
			"byteOffset":1416,
			"target":34962
		},
		{
			"buffer":0,
			"byteLength":288,
			"byteOffset":1608,
			"target":34962
		},
		{
			"buffer":0,
			"byteLength":288,
			"byteOffset":1896,
			"target":34962
		},
		{
			"buffer":0,
			"byteLength":192,
			"byteOffset":2184,
			"target":34962
		},
		{
			"buffer":0,
			"byteLength":384,
			"byteOffset":2376,
			"target":34962
		},
		{
			"buffer":0,
			"byteLength":192,
			"byteOffset":2760,
			"target":34962
		},
		{
			"buffer":0,
			"byteLength":288,
			"byteOffset":2952,
			"target":34962
		},
		{
			"buffer":0,
			"byteLength":288,
			"byteOffset":3240,
			"target":34962
		},
		{
			"buffer":0,
			"byteLength":192,
			"byteOffset":3528,
			"target":34962
		},
		{
			"buffer":0,
			"byteLength":384,
			"byteOffset":3720,
			"target":34962
		},
		{
			"buffer":0,
			"byteLength":1920,
			"byteOffset":4104,
			"target":34962
		},
		{
			"buffer":0,
			"byteLength":2880,
			"byteOffset":6024,
			"target":34962
		},
		{
			"buffer":0,
			"byteLength":2880,
			"byteOffset":8904,
			"target":34962
		},
		{
			"buffer":0,
			"byteLength":2856,
			"byteOffset":11784,
			"target":34963
		},
		{
			"buffer":0,
			"byteLength":1920,
			"byteOffset":14640,
			"target":34962
		},
		{
			"buffer":0,
			"byteLength":2880,
			"byteOffset":16560,
			"target":34962
		},
		{
			"buffer":0,
			"byteLength":2880,
			"byteOffset":19440,
			"target":34962
		},
		{
			"buffer":0,
			"byteLength":2856,
			"byteOffset":22320,
			"target":34963
		},
		{
			"buffer":0,
			"byteLength":192,
			"byteOffset":25176,
			"target":34962
		},
		{
			"buffer":0,
			"byteLength":288,
			"byteOffset":25368,
			"target":34962
		},
		{
			"buffer":0,
			"byteLength":288,
			"byteOffset":25656,
			"target":34962
		},
		{
			"buffer":0,
			"byteLength":192,
			"byteOffset":25944,
			"target":34962
		},
		{
			"buffer":0,
			"byteLength":384,
			"byteOffset":26136,
			"target":34962
		}
	],
	"buffers":[
		{
			"byteLength":26520,
			"uri":"hierarchy2.bin"
		}
	]
}
