{
	"asset":{
		"generator":"Khronos glTF Blender I/O v4.0.44",
		"version":"2.0"
	},
	"scene":0,
	"scenes":[
		{
			"name":"Scene",
			"nodes":[
				0
			]
		}
	],
	"nodes":[
		{
			"mesh":0,
			"name":"Suzanne"
		}
	],
	"meshes":[
		{
			"name":"Suzanne",
			"primitives":[
				{
					"attributes":{
						"COLOR_0":0,
						"POSITION":1,
						"NORMAL":2,
						"TEXCOORD_0":3,
						"TANGENT":4
					},
					"indices":5
				}
			]
		}
	],
	"accessors":[
		{
			"bufferView":0,
			"componentType":5126,
			"count":555,
			"type":"VEC4"
		},
		{
			"bufferView":1,
			"componentType":5126,
			"count":555,
			"max":[
				1.3671875,
				0.984375,
				0.8515625
			],
			"min":[
				-1.3671875,
				-0.984375,
				-0.8515625
			],
			"type":"VEC3"
		},
		{
			"bufferView":2,
			"componentType":5126,
			"count":555,
			"type":"VEC3"
		},
		{
			"bufferView":3,
			"componentType":5126,
			"count":555,
			"type":"VEC2"
		},
		{
			"bufferView":4,
			"componentType":5126,
			"count":555,
			"type":"VEC4"
		},
		{
			"bufferView":5,
			"componentType":5123,
			"count":2904,
			"type":"SCALAR"
		}
	],
	"bufferViews":[
		{
			"buffer":0,
			"byteLength":8880,
			"byteOffset":0,
			"target":34962
		},
		{
			"buffer":0,
			"byteLength":6660,
			"byteOffset":8880,
			"target":34962
		},
		{
			"buffer":0,
			"byteLength":6660,
			"byteOffset":15540,
			"target":34962
		},
		{
			"buffer":0,
			"byteLength":4440,
			"byteOffset":22200,
			"target":34962
		},
		{
			"buffer":0,
			"byteLength":8880,
			"byteOffset":26640,
			"target":34962
		},
		{
			"buffer":0,
			"byteLength":5808,
			"byteOffset":35520,
			"target":34963
		}
	],
	"buffers":[
		{
			"byteLength":41328,
			"uri":"monke.bin"
		}
	]
}
